<svg width="50" height="72" viewBox="0 0 50 72" fill="none" xmlns="http://www.w3.org/2000/svg">
<path d="M16.8722 7.25164V11.183C16.8722 11.4672 16.6512 11.6882 16.367 11.6882H11.5515C11.2673 11.6882 11.0462 11.9093 11.0462 12.1935V17.009C11.0462 17.2932 10.8252 17.5142 10.541 17.5142H6.60963C6.32543 17.5142 6.10439 17.2932 6.10439 17.009V12.1935C6.10439 11.9093 5.88336 11.6882 5.59916 11.6882H0.799425C0.515231 11.6882 0.294189 11.4672 0.294189 11.183V7.25164C0.294189 6.96744 0.515231 6.7464 0.799425 6.7464H5.61495C5.89914 6.7464 6.12018 6.52536 6.12018 6.24117V1.42564C6.12018 1.14145 6.34122 0.92041 6.62542 0.92041H10.5568C10.841 0.92041 11.062 1.14145 11.062 1.42564V6.24117C11.062 6.52536 11.2831 6.7464 11.5673 6.7464H16.367C16.6512 6.7464 16.8722 6.96744 16.8722 7.25164Z" fill="url(#paint0_linear_144_2139)"/>
<path opacity="0.5" d="M48.5757 28.6768H0.846771C0.530999 28.6768 0.278381 28.4242 0.278381 28.1084V26.2927C0.278381 25.9769 0.530999 25.7243 0.846771 25.7243H48.5757C48.8915 25.7243 49.1441 25.9769 49.1441 26.2927V28.1084C49.1283 28.4242 48.8915 28.6768 48.5757 28.6768Z" fill="url(#paint1_linear_144_2139)"/>
<path d="M48.5758 6.05173H24.8929C24.5771 6.05173 24.3245 5.79911 24.3245 5.48334V3.68344C24.3245 3.36767 24.5771 3.11505 24.8929 3.11505H48.5758C48.8915 3.11505 49.1441 3.36767 49.1441 3.68344V5.49913C49.1284 5.79911 48.8915 6.05173 48.5758 6.05173Z" fill="url(#paint2_linear_144_2139)"/>
<path opacity="0.5" d="M41.5656 13.725H24.8929C24.5771 13.725 24.3245 13.4724 24.3245 13.1566V11.3409C24.3245 11.0251 24.5771 10.7725 24.8929 10.7725H41.5656C41.8814 10.7725 42.134 11.0251 42.134 11.3409V13.1566C42.1182 13.4724 41.8814 13.725 41.5656 13.725Z" fill="url(#paint3_linear_144_2139)"/>
<path opacity="0.5" d="M48.5757 37.2973H0.846771C0.530999 37.2973 0.278381 37.0447 0.278381 36.7289V34.9132C0.278381 34.5975 0.530999 34.3448 0.846771 34.3448H48.5757C48.8915 34.3448 49.1441 34.5975 49.1441 34.9132V36.7289C49.1283 37.0447 48.8915 37.2973 48.5757 37.2973Z" fill="url(#paint4_linear_144_2139)"/>
<path opacity="0.5" d="M48.5757 45.9179H0.846771C0.530999 45.9179 0.278381 45.6653 0.278381 45.3495V43.5338C0.278381 43.2181 0.530999 42.9655 0.846771 42.9655H48.5757C48.8915 42.9655 49.1441 43.2181 49.1441 43.5338V45.3653C49.1283 45.6653 48.8915 45.9179 48.5757 45.9179Z" fill="url(#paint5_linear_144_2139)"/>
<path opacity="0.5" d="M48.5757 54.5543H0.846771C0.530999 54.5543 0.278381 54.3017 0.278381 53.9859V52.1702C0.278381 51.8544 0.530999 51.6018 0.846771 51.6018H48.5757C48.8915 51.6018 49.1441 51.8544 49.1441 52.1702V53.9859C49.1283 54.3017 48.8915 54.5543 48.5757 54.5543Z" fill="url(#paint6_linear_144_2139)"/>
<path opacity="0.5" d="M48.5757 63.1749H0.846771C0.530999 63.1749 0.278381 62.9223 0.278381 62.6065V60.7908C0.278381 60.475 0.530999 60.2224 0.846771 60.2224H48.5757C48.8915 60.2224 49.1441 60.475 49.1441 60.7908V62.6065C49.1283 62.9223 48.8915 63.1749 48.5757 63.1749Z" fill="url(#paint7_linear_144_2139)"/>
<path opacity="0.5" d="M48.5757 71.7954H0.846771C0.530999 71.7954 0.278381 71.5428 0.278381 71.227V69.4113C0.278381 69.0956 0.530999 68.843 0.846771 68.843H48.5757C48.8915 68.843 49.1441 69.0956 49.1441 69.4113V71.227C49.1283 71.5428 48.8915 71.7954 48.5757 71.7954Z" fill="url(#paint8_linear_144_2139)"/>
<defs>
<linearGradient id="paint0_linear_144_2139" x1="3.11766e-05" y1="-1.49997" x2="15" y2="23" gradientUnits="userSpaceOnUse">
<stop stop-color="#B0F4FF"/>
<stop offset="0.368525" stop-color="#80E4FD"/>
<stop offset="1" stop-color="#6CDDFC"/>
</linearGradient>
<linearGradient id="paint1_linear_144_2139" x1="0.29057" y1="27.2072" x2="49.1355" y2="27.2072" gradientUnits="userSpaceOnUse">
<stop stop-color="#6CBCFC"/>
<stop offset="1" stop-color="#458DFC"/>
</linearGradient>
<linearGradient id="paint2_linear_144_2139" x1="24.3249" y1="4.58446" x2="49.1356" y2="4.58446" gradientUnits="userSpaceOnUse">
<stop stop-color="#6CBCFC"/>
<stop offset="1" stop-color="#458DFC"/>
</linearGradient>
<linearGradient id="paint3_linear_144_2139" x1="24.3249" y1="12.2616" x2="42.1257" y2="12.2616" gradientUnits="userSpaceOnUse">
<stop stop-color="#6CBCFC"/>
<stop offset="1" stop-color="#458DFC"/>
</linearGradient>
<linearGradient id="paint4_linear_144_2139" x1="0.29057" y1="35.8317" x2="49.1355" y2="35.8317" gradientUnits="userSpaceOnUse">
<stop stop-color="#6CBCFC"/>
<stop offset="1" stop-color="#458DFC"/>
</linearGradient>
<linearGradient id="paint5_linear_144_2139" x1="0.29057" y1="44.4562" x2="49.1355" y2="44.4562" gradientUnits="userSpaceOnUse">
<stop stop-color="#6CBCFC"/>
<stop offset="1" stop-color="#458DFC"/>
</linearGradient>
<linearGradient id="paint6_linear_144_2139" x1="0.29057" y1="53.0807" x2="49.1355" y2="53.0807" gradientUnits="userSpaceOnUse">
<stop stop-color="#6CBCFC"/>
<stop offset="1" stop-color="#458DFC"/>
</linearGradient>
<linearGradient id="paint7_linear_144_2139" x1="0.29057" y1="61.7052" x2="49.1355" y2="61.7052" gradientUnits="userSpaceOnUse">
<stop stop-color="#6CBCFC"/>
<stop offset="1" stop-color="#458DFC"/>
</linearGradient>
<linearGradient id="paint8_linear_144_2139" x1="0.29057" y1="70.3296" x2="49.1355" y2="70.3296" gradientUnits="userSpaceOnUse">
<stop stop-color="#6CBCFC"/>
<stop offset="1" stop-color="#458DFC"/>
</linearGradient>
</defs>
</svg>
